<?xml version="1.0" standalone="no"?>
<!DOCTYPE svg PUBLIC "-//W3C//DTD SVG 20010904//EN"
 "http://www.w3.org/TR/2001/REC-SVG-20010904/DTD/svg10.dtd">
<svg version="1.0" xmlns="http://www.w3.org/2000/svg"
 width="512.000000pt" height="512.000000pt" viewBox="0 0 512.000000 512.000000"
 preserveAspectRatio="xMidYMid meet">
<metadata>
Created by potrace 1.11, written by Peter Selinger 2001-2013
</metadata>
<g transform="translate(0.000000,512.000000) scale(0.100000,-0.100000)"
fill="#000000" stroke="none">
<path d="M2109 5116 c-2 -2 -46 -7 -98 -11 -182 -13 -344 -70 -421 -147 -130
-129 -140 -382 -28 -688 60 -164 163 -352 257 -468 28 -34 51 -66 51 -71 0 -5
-37 -11 -82 -12 -90 -4 -121 -19 -153 -72 -23 -39 -27 -135 -7 -176 19 -40 71
-81 102 -81 17 0 7 -10 -41 -42 -35 -23 -66 -45 -69 -48 -3 -3 -30 -24 -60
-45 -135 -99 -333 -291 -445 -434 -27 -35 -62 -78 -76 -95 -133 -158 -332
-497 -452 -766 -76 -173 -170 -462 -193 -595 -2 -16 -7 -37 -9 -45 -2 -8 -6
-33 -9 -55 -4 -22 -8 -51 -11 -65 -16 -84 -23 -342 -10 -400 3 -14 10 -52 16
-85 39 -223 179 -407 394 -517 172 -88 448 -150 765 -173 150 -10 619 -17
1255 -19 573 -1 743 3 900 19 22 2 65 6 95 9 30 4 64 8 75 10 11 2 43 7 70 11
130 18 344 82 430 129 252 135 387 346 414 643 7 88 6 235 -3 304 -17 126 -40
248 -66 344 -28 108 -83 281 -100 320 -5 11 -26 61 -46 110 -97 241 -307 610
-448 786 -12 14 -34 43 -51 65 -168 217 -383 422 -591 564 -73 50 -81 58 -62
64 13 3 40 19 60 36 27 23 39 42 46 78 19 89 0 150 -62 196 -21 16 -47 22
-117 26 l-89 5 31 35 c96 110 234 354 294 520 64 180 89 384 61 503 -44 185
-188 283 -471 323 -49 7 -1039 16 -1046 10z"/>
</g>
</svg>
